<svg width="369" height="383" viewBox="0 0 369 383" fill="none" xmlns="http://www.w3.org/2000/svg">
<g filter="url(#filter0_d_208_58)">
<mask id="mask0_208_58" style="mask-type:alpha" maskUnits="userSpaceOnUse" x="0" y="0" width="361" height="366">
<path d="M56.4299 23.3323C56.4299 10.4462 66.8761 0 79.7622 0H337.668C350.554 0 361 10.4462 361 23.3323L304.57 342.068C304.57 354.954 294.124 365.401 281.238 365.401H23.3323C10.4462 365.401 0 354.954 0 342.068L56.4299 23.3323Z" fill="url(#paint0_linear_208_58)"/>
</mask>
<g mask="url(#mask0_208_58)">
<g filter="url(#filter1_d_208_58)">
<path d="M120.034 73.9091V183H90.4176V101.182H89.7784L65.9147 115.457V90.3153L92.7613 73.9091H120.034Z" fill="url(#paint1_linear_208_58)"/>
</g>
<g filter="url(#filter2_i_208_58)">
<path d="M166.132 57.0809C166.132 44.1948 176.578 33.7485 189.464 33.7485H328.625C341.511 33.7485 351.957 44.1948 351.957 57.0809L304.57 342.068C304.57 354.954 294.124 365.401 281.238 365.401H142.077C129.191 365.401 118.745 354.954 118.745 342.068L166.132 57.0809Z" fill="url(#paint2_linear_208_58)"/>
</g>
</g>
</g>
<defs>
<filter id="filter0_d_208_58" x="49.6146" y="18.4485" width="318.643" height="364.252" filterUnits="userSpaceOnUse" color-interpolation-filters="sRGB">
<feFlood flood-opacity="0" result="BackgroundImageFix"/>
<feColorMatrix in="SourceAlpha" type="matrix" values="0 0 0 0 0 0 0 0 0 0 0 0 0 0 0 0 0 0 127 0" result="hardAlpha"/>
<feOffset dy="1"/>
<feGaussianBlur stdDeviation="8.15"/>
<feComposite in2="hardAlpha" operator="out"/>
<feColorMatrix type="matrix" values="0 0 0 0 0 0 0 0 0 0 0 0 0 0 0 0 0 0 0.25 0"/>
<feBlend mode="normal" in2="BackgroundImageFix" result="effect1_dropShadow_208_58"/>
<feBlend mode="normal" in="SourceGraphic" in2="effect1_dropShadow_208_58" result="shape"/>
</filter>
<filter id="filter1_d_208_58" x="63.9146" y="73.9091" width="62.1196" height="117.091" filterUnits="userSpaceOnUse" color-interpolation-filters="sRGB">
<feFlood flood-opacity="0" result="BackgroundImageFix"/>
<feColorMatrix in="SourceAlpha" type="matrix" values="0 0 0 0 0 0 0 0 0 0 0 0 0 0 0 0 0 0 127 0" result="hardAlpha"/>
<feOffset dx="2" dy="4"/>
<feGaussianBlur stdDeviation="2"/>
<feComposite in2="hardAlpha" operator="out"/>
<feColorMatrix type="matrix" values="0 0 0 0 0 0 0 0 0 0 0 0 0 0 0 0 0 0 0.25 0"/>
<feBlend mode="normal" in2="BackgroundImageFix" result="effect1_dropShadow_208_58"/>
<feBlend mode="normal" in="SourceGraphic" in2="effect1_dropShadow_208_58" result="shape"/>
</filter>
<filter id="filter2_i_208_58" x="118.745" y="33.7485" width="233.212" height="331.652" filterUnits="userSpaceOnUse" color-interpolation-filters="sRGB">
<feFlood flood-opacity="0" result="BackgroundImageFix"/>
<feBlend mode="normal" in="SourceGraphic" in2="BackgroundImageFix" result="shape"/>
<feColorMatrix in="SourceAlpha" type="matrix" values="0 0 0 0 0 0 0 0 0 0 0 0 0 0 0 0 0 0 127 0" result="hardAlpha"/>
<feOffset/>
<feGaussianBlur stdDeviation="12.6"/>
<feComposite in2="hardAlpha" operator="arithmetic" k2="-1" k3="1"/>
<feColorMatrix type="matrix" values="0 0 0 0 0 0 0 0 0 0 0 0 0 0 0 0 0 0 0.25 0"/>
<feBlend mode="normal" in2="shape" result="effect1_innerShadow_208_58"/>
</filter>
<linearGradient id="paint0_linear_208_58" x1="192.334" y1="33.7485" x2="278.368" y2="365.401" gradientUnits="userSpaceOnUse">
<stop stop-color="#82B9C8"/>
<stop offset="1" stop-color="#04324B"/>
</linearGradient>
<linearGradient id="paint1_linear_208_58" x1="53.0843" y1="-11.3312" x2="97.2491" y2="137.829" gradientUnits="userSpaceOnUse">
<stop stop-color="white"/>
<stop offset="1" stop-color="#999999"/>
</linearGradient>
<linearGradient id="paint2_linear_208_58" x1="192.334" y1="33.7485" x2="278.368" y2="365.401" gradientUnits="userSpaceOnUse">
<stop stop-color="#82B9C8"/>
<stop offset="1" stop-color="#04324B"/>
</linearGradient>
</defs>
</svg>
