<svg width="369" height="383" viewBox="0 0 369 383" fill="none" xmlns="http://www.w3.org/2000/svg">
<g filter="url(#filter0_d_208_78)">
<mask id="mask0_208_78" style="mask-type:alpha" maskUnits="userSpaceOnUse" x="0" y="0" width="361" height="366">
<path d="M56.4299 23.3323C56.4299 10.4462 66.8761 0 79.7622 0H337.668C350.554 0 361 10.4462 361 23.3323L304.57 342.068C304.57 354.954 294.124 365.401 281.238 365.401H23.3323C10.4462 365.401 0 354.954 0 342.068L56.4299 23.3323Z" fill="url(#paint0_linear_208_78)"/>
</mask>
<g mask="url(#mask0_208_78)">
<g filter="url(#filter1_d_208_78)">
<path d="M56.0071 183V161.693L96.7031 128.028C99.4019 125.791 101.71 123.696 103.628 121.743C105.581 119.754 107.072 117.712 108.102 115.617C109.168 113.522 109.7 111.196 109.7 108.639C109.7 105.834 109.097 103.437 107.889 101.448C106.717 99.4595 105.084 97.9325 102.989 96.8672C100.893 95.7663 98.4787 95.2159 95.7443 95.2159C93.0099 95.2159 90.5951 95.7663 88.5 96.8672C86.4403 97.968 84.8423 99.5838 83.7059 101.714C82.5696 103.845 82.0014 106.437 82.0014 109.491H53.8764C53.8764 101.821 55.5987 95.2159 59.0433 89.6761C62.4879 84.1364 67.3529 79.875 73.6385 76.892C79.924 73.9091 87.2926 72.4176 95.7443 72.4176C104.48 72.4176 112.044 73.8203 118.436 76.6257C124.864 79.3956 129.817 83.3018 133.298 88.3445C136.813 93.3871 138.571 99.2997 138.571 106.082C138.571 110.273 137.701 114.445 135.961 118.6C134.221 122.719 131.096 127.283 126.586 132.29C122.076 137.297 115.666 143.263 107.356 150.188L97.1292 158.71V159.349H139.743V183H56.0071Z" fill="url(#paint1_linear_208_78)"/>
</g>
<g filter="url(#filter2_i_208_78)">
<path d="M166.132 57.0809C166.132 44.1948 176.578 33.7485 189.464 33.7485H328.625C341.511 33.7485 351.957 44.1948 351.957 57.0809L304.57 342.068C304.57 354.954 294.124 365.401 281.238 365.401H142.077C129.191 365.401 118.745 354.954 118.745 342.068L166.132 57.0809Z" fill="url(#paint2_linear_208_78)"/>
</g>
</g>
</g>
<defs>
<filter id="filter0_d_208_78" x="37.5765" y="18.4485" width="330.681" height="364.252" filterUnits="userSpaceOnUse" color-interpolation-filters="sRGB">
<feFlood flood-opacity="0" result="BackgroundImageFix"/>
<feColorMatrix in="SourceAlpha" type="matrix" values="0 0 0 0 0 0 0 0 0 0 0 0 0 0 0 0 0 0 127 0" result="hardAlpha"/>
<feOffset dy="1"/>
<feGaussianBlur stdDeviation="8.15"/>
<feComposite in2="hardAlpha" operator="out"/>
<feColorMatrix type="matrix" values="0 0 0 0 0 0 0 0 0 0 0 0 0 0 0 0 0 0 0.25 0"/>
<feBlend mode="normal" in2="BackgroundImageFix" result="effect1_dropShadow_208_78"/>
<feBlend mode="normal" in="SourceGraphic" in2="effect1_dropShadow_208_78" result="shape"/>
</filter>
<filter id="filter1_d_208_78" x="51.8765" y="72.4176" width="93.8662" height="118.582" filterUnits="userSpaceOnUse" color-interpolation-filters="sRGB">
<feFlood flood-opacity="0" result="BackgroundImageFix"/>
<feColorMatrix in="SourceAlpha" type="matrix" values="0 0 0 0 0 0 0 0 0 0 0 0 0 0 0 0 0 0 127 0" result="hardAlpha"/>
<feOffset dx="2" dy="4"/>
<feGaussianBlur stdDeviation="2"/>
<feComposite in2="hardAlpha" operator="out"/>
<feColorMatrix type="matrix" values="0 0 0 0 0 0 0 0 0 0 0 0 0 0 0 0 0 0 0.25 0"/>
<feBlend mode="normal" in2="BackgroundImageFix" result="effect1_dropShadow_208_78"/>
<feBlend mode="normal" in="SourceGraphic" in2="effect1_dropShadow_208_78" result="shape"/>
</filter>
<filter id="filter2_i_208_78" x="118.745" y="33.7485" width="233.212" height="331.652" filterUnits="userSpaceOnUse" color-interpolation-filters="sRGB">
<feFlood flood-opacity="0" result="BackgroundImageFix"/>
<feBlend mode="normal" in="SourceGraphic" in2="BackgroundImageFix" result="shape"/>
<feColorMatrix in="SourceAlpha" type="matrix" values="0 0 0 0 0 0 0 0 0 0 0 0 0 0 0 0 0 0 127 0" result="hardAlpha"/>
<feOffset/>
<feGaussianBlur stdDeviation="12.6"/>
<feComposite in2="hardAlpha" operator="arithmetic" k2="-1" k3="1"/>
<feColorMatrix type="matrix" values="0 0 0 0 0 0 0 0 0 0 0 0 0 0 0 0 0 0 0.25 0"/>
<feBlend mode="normal" in2="shape" result="effect1_innerShadow_208_78"/>
</filter>
<linearGradient id="paint0_linear_208_78" x1="192.334" y1="33.7485" x2="278.368" y2="365.401" gradientUnits="userSpaceOnUse">
<stop stop-color="#82B9C8"/>
<stop offset="1" stop-color="#04324B"/>
</linearGradient>
<linearGradient id="paint1_linear_208_78" x1="53.0843" y1="-11.3312" x2="97.2491" y2="137.829" gradientUnits="userSpaceOnUse">
<stop stop-color="white"/>
<stop offset="1" stop-color="#999999"/>
</linearGradient>
<linearGradient id="paint2_linear_208_78" x1="192.334" y1="33.7485" x2="278.368" y2="365.401" gradientUnits="userSpaceOnUse">
<stop stop-color="#82B9C8"/>
<stop offset="1" stop-color="#04324B"/>
</linearGradient>
</defs>
</svg>
